<?xml version="1.0" encoding="UTF-8" standalone="no"?>
<svg width="1000" height="1000" viewBox="0 0 1000 1000" xmlns="http://www.w3.org/2000/svg">
  <defs>
    <pattern id="grid" width="50" height="50" patternUnits="userSpaceOnUse">
      <path d="M 50 0 L 0 0 0 50" fill="none" stroke="#8b1a1d" stroke-width="0.5" stroke-opacity="0.1"/>
    </pattern>
    
    <pattern id="dots" width="20" height="20" patternUnits="userSpaceOnUse">
      <circle cx="10" cy="10" r="1.5" fill="#8b1a1d" fill-opacity="0.2"/>
    </pattern>
    
    <!-- Statistical elements -->
    <g id="chart-icon">
      <rect x="0" y="10" width="5" height="20" fill="#8b1a1d" fill-opacity="0.4"/>
      <rect x="8" y="5" width="5" height="25" fill="#8b1a1d" fill-opacity="0.4"/>
      <rect x="16" y="15" width="5" height="15" fill="#8b1a1d" fill-opacity="0.4"/>
      <rect x="24" y="0" width="5" height="30" fill="#8b1a1d" fill-opacity="0.4"/>
    </g>
    
    <g id="gear-icon">
      <circle cx="15" cy="15" r="10" fill="none" stroke="#8b1a1d" stroke-width="2" stroke-opacity="0.4"/>
      <circle cx="15" cy="15" r="4" fill="#8b1a1d" fill-opacity="0.4"/>
      <path d="M 15 0 L 15 5 M 15 25 L 15 30 M 0 15 L 5 15 M 25 15 L 30 15 M 4 4 L 8 8 M 22 22 L 26 26 M 4 26 L 8 22 M 22 8 L 26 4" stroke="#8b1a1d" stroke-width="2" stroke-opacity="0.4"/>
    </g>
    
    <g id="admin-badge">
      <circle cx="20" cy="20" r="18" fill="none" stroke="#8b1a1d" stroke-width="2" stroke-opacity="0.3"/>
      <circle cx="20" cy="20" r="14" fill="none" stroke="#8b1a1d" stroke-width="1" stroke-opacity="0.3"/>
      <path d="M 12 15 L 18 22 L 28 12" stroke="#8b1a1d" stroke-width="3" stroke-opacity="0.3" fill="none" stroke-linecap="round" stroke-linejoin="round"/>
    </g>
  </defs>
  
  <!-- Base background -->
  <rect width="100%" height="100%" fill="white"/>
  
  <!-- Grid pattern -->
  <rect width="100%" height="100%" fill="url(#grid)"/>
  
  <!-- Dots pattern -->
  <rect width="100%" height="100%" fill="url(#dots)"/>
  
  <!-- Statistical and administrative elements scattered across the background -->
  <g opacity="0.6">
    <!-- First row -->
    <use href="#chart-icon" x="100" y="100"/>
    <use href="#gear-icon" x="300" y="150"/>
    <use href="#admin-badge" x="500" y="120"/>
    <use href="#chart-icon" x="700" y="180" transform="scale(1.2)"/>
    <use href="#gear-icon" x="900" y="100"/>
    
    <!-- Second row -->
    <use href="#admin-badge" x="150" y="300"/>
    <use href="#chart-icon" x="350" y="320"/>
    <use href="#gear-icon" x="550" y="280"/>
    <use href="#admin-badge" x="750" y="350" transform="scale(1.2)"/>
    <use href="#chart-icon" x="950" y="300"/>
    
    <!-- Third row -->
    <use href="#gear-icon" x="120" y="500"/>
    <use href="#admin-badge" x="320" y="480"/>
    <use href="#chart-icon" x="520" y="520"/>
    <use href="#gear-icon" x="720" y="480"/>
    <use href="#admin-badge" x="920" y="500"/>
    
    <!-- Fourth row -->
    <use href="#chart-icon" x="150" y="700"/>
    <use href="#gear-icon" x="350" y="680"/>
    <use href="#admin-badge" x="550" y="720"/>
    <use href="#chart-icon" x="750" y="680"/>
    <use href="#gear-icon" x="950" y="700"/>
    
    <!-- Fifth row -->
    <use href="#admin-badge" x="100" y="900"/>
    <use href="#chart-icon" x="300" y="880"/>
    <use href="#gear-icon" x="500" y="920"/>
    <use href="#admin-badge" x="700" y="880"/>
    <use href="#chart-icon" x="900" y="900"/>
  </g>
  
  <!-- Diagonal lines for visual interest -->
  <g stroke="#8b1a1d" stroke-opacity="0.1" stroke-width="1">
    <line x1="0" y1="0" x2="1000" y2="1000"/>
    <line x1="200" y1="0" x2="1000" y2="800"/>
    <line x1="400" y1="0" x2="1000" y2="600"/>
    <line x1="600" y1="0" x2="1000" y2="400"/>
    <line x1="800" y1="0" x2="1000" y2="200"/>
    
    <line x1="0" y1="200" x2="800" y2="1000"/>
    <line x1="0" y1="400" x2="600" y2="1000"/>
    <line x1="0" y1="600" x2="400" y2="1000"/>
    <line x1="0" y1="800" x2="200" y2="1000"/>
  </g>
</svg> 